# xmcd
#
# Track frame offsets: 
#        150
#        21377
#        32247
#        55825
#        76155
#        88182
#        109045
#        133452
#
# Disc length: 1982 seconds
#
# Revision: 1
# Processed by: cddbd v1.5.2PL0 Copyright (c) Steve Scherf et al.
# Submitted via: ExactAudioCopy v1.0b3
#
DISCID=6907bc08
DTITLE=Various Artist - The Soul Of Jazz
DYEAR=2004
DGENRE=Jazz
TTITLE0=Jackie McLean - Horace Silver - Soul - The Joy Grind
TTITLE1=Larry Young - Major Affair
TTITLE2=Cannonball Adderley - Miles Davis - Love For Sale
TTITLE3=Lou Donaldson - Alligator Boogaloo
TTITLE4=The Three Sounds - Still I'm Sad
TTITLE5=Lee Morgan - The Sidewinder
TTITLE6=Art Blakey - Moanin'
TTITLE7=Herbie Hancock - Watermelon Man
EXTD=YEAR: 2004
EXTT0=
EXTT1=
EXTT2=
EXTT3=
EXTT4=
EXTT5=
EXTT6=
EXTT7=
PLAYORDER=
